<svg width="121" height="126" viewBox="0 0 121 126" fill="none" xmlns="http://www.w3.org/2000/svg">
<path d="M3.57422 107L5.22656 107.07L6.80859 107L7.19531 107.023L7.35938 107H8.22656C8.39062 107 8.47266 107.07 8.47266 107.211C8.47266 107.375 8.34375 107.48 8.08594 107.527C8.03906 107.496 7.97266 107.48 7.88672 107.48C7.77734 107.48 7.67578 107.52 7.58203 107.598L7.24219 107.527L6.59766 107.551C6.30078 107.715 6.00391 107.797 5.70703 107.797L5.25 107.715L5.01562 107.938H4.79297V107.797L4.38281 107.984H4.17188L4.10156 108.195C3.96875 108.156 3.73438 108.125 3.39844 108.102C3.375 108.195 3.33594 108.242 3.28125 108.242C3.25 108.242 3.20312 108.211 3.14062 108.148L2.80078 108.195L2.56641 108.441L2.49609 109.613L2.54297 110.316L2.47266 111.219L2.49609 112.227L2.56641 112.707V113.141L2.84766 113.738V113.844C2.84766 114.117 3.00781 114.379 3.32812 114.629L3.39844 114.828L3.83203 114.922L4.14844 115.262L5.03906 115.426L6.21094 115.156L6.55078 115.262L7.38281 114.875L7.69922 114.922C7.80859 115.031 7.86328 115.133 7.86328 115.227C7.86328 115.344 7.76172 115.473 7.55859 115.613L7.38281 115.543L7.00781 115.859L6.21094 115.953L5.94141 116.117L5.66016 115.953C5.39453 116.094 5.11328 116.164 4.81641 116.164L4.33594 116.07H4.07812L3.21094 115.566L2.80078 114.992L2.51953 114.676L2.08594 113.527L1.88672 112.449L1.99219 112.016L1.79297 111.781L1.88672 111.512L1.79297 111.078L2.03906 110.891L1.93359 110.668L1.99219 110.387L1.88672 110.07L1.93359 109.613L1.88672 109.379L1.99219 109.309V108.441C1.94531 108.23 1.87891 108.125 1.79297 108.125C1.73828 108.125 1.69141 108.156 1.65234 108.219L1.38281 108.102L1.00781 108.195L0.621094 107.914H0.421875C0.234375 107.914 0.140625 107.809 0.140625 107.598L0.164062 107.234L0 107.117L0.09375 106.906L0.445312 106.953L0.714844 106.906L1.10156 107.023H2.10938L2.15625 106.473V105.922L1.99219 105.512L2.17969 105.371C2.21094 105.277 2.22656 105.219 2.22656 105.195C2.22656 105.094 2.16406 105.008 2.03906 104.938L2.08594 104L1.88672 103.707L1.93359 103.496C1.77734 103.465 1.69922 103.402 1.69922 103.309L1.86328 102.676C1.99609 102.504 2.07031 102.395 2.08594 102.348C2.5625 102.582 2.80078 102.719 2.80078 102.758V102.781L2.70703 103.016C2.81641 103.242 2.87109 103.418 2.87109 103.543V103.613C2.82422 103.738 2.80078 103.852 2.80078 103.953C2.80078 104.031 2.82422 104.094 2.87109 104.141L2.84766 104.34L2.87109 104.598L2.66016 104.938L2.80078 105.535L2.70703 106.262L2.80078 106.402L2.66016 106.613L2.84766 107.211H3.28125L3.57422 107ZM18.9961 115.859C19.0117 115.938 19.0195 116.039 19.0195 116.164C19.0195 116.531 18.8438 116.715 18.4922 116.715C18.2578 116.715 18.0977 116.516 18.0117 116.117L17.8477 115.379V115.156C17.8633 115.047 17.8711 114.914 17.8711 114.758C17.8711 114.57 17.7891 114.359 17.625 114.125L17.7891 113.738L17.6953 113.164L17.7891 112.883V112.496L17.8477 112.156L17.7422 111.781L17.8477 111.559V110.668L17.8711 109.52L17.6953 108.758L17.7891 108.441L17.5781 107.527V107.234L17.1914 107.07L16.7578 107.469C16.6953 107.523 16.6172 107.574 16.5234 107.621L16.1133 107.797L15.4453 108.758L15.1758 108.828L14.5781 109.812V109.93H14.4141L14.3438 110.141L14.0859 110.387C13.9922 110.488 13.918 110.641 13.8633 110.844L13.6172 111.676L13.2539 112.145C13.207 112.199 13.1523 112.332 13.0898 112.543L12.8555 112.766L12.75 113.387L12.2461 113.867L12.1992 114.535H12.1055L11.9414 114.992L11.5547 115.684C11.25 116.027 11.0664 116.262 11.0039 116.387L10.8867 116.34H10.7344L10.6641 116.211L10.4531 115.402L10.4062 114.078L10.3359 113.691L10.4062 113.211L10.3828 112.379L10.5 112.332L10.6641 110.293L10.7344 109.906L10.7109 109.613L10.8398 109.543L10.7812 109.379L10.8867 108.535L11.0039 108.195L10.9336 107.844L11.0039 107.668L10.9336 107.527L11.0039 106.73L10.8867 106.613L10.957 106.449L10.9336 105.535L10.7812 105.125H10.9336V104.914L10.7109 103.93V103.449L10.6172 103.227L10.5 102.465C10.4062 102.113 10.2773 101.785 10.1133 101.48L10.3828 101.094L10.3359 101.023C10.5234 101.023 10.6172 101.121 10.6172 101.316L10.957 101.621L11.0508 101.902C11.082 101.988 11.1797 102.121 11.3438 102.301L11.2852 102.512L11.4375 102.945L11.2852 103.156L11.5078 103.332L11.4844 103.953L11.5078 105.148L11.6484 105.758L11.5547 106.016L11.5781 106.473L11.4844 106.859L11.5547 107.457L11.3906 108.055L11.4844 108.219L11.4375 109.684L11.4844 109.906L11.3906 110.023L11.2852 110.914L11.168 111.172L11.2617 111.465L11.2148 111.605L11.168 112.402L10.9336 113.094C11.1055 113.297 11.1914 113.434 11.1914 113.504L11.0039 113.844C11.082 114 11.1211 114.191 11.1211 114.418L11.3438 114.242L11.4375 113.938L11.8125 113.164L11.9883 112.613C12.2461 112.535 12.375 112.367 12.375 112.109C12.4219 112.086 12.5391 111.895 12.7266 111.535L12.832 111.23C12.8633 111.129 12.9414 111 13.0664 110.844L13.0898 110.527L13.0195 110.457L13.1836 110.316L13.2305 110.387L13.6172 109.906C13.7422 109.844 13.8047 109.746 13.8047 109.613V109.52C14.0156 109.488 14.1211 109.344 14.1211 109.086L14.1914 109.039V108.922L14.3906 108.875L14.4141 108.559H14.5781L14.5547 108.371H14.7188V108.219C14.8281 108.141 14.8945 108.102 14.918 108.102C14.9336 108.102 14.9414 108.117 14.9414 108.148V108.195L14.9648 107.984H15.0352C15.2227 107.984 15.3164 107.832 15.3164 107.527L15.6094 107.293L15.6562 107.387C15.7734 107.254 15.8477 107.094 15.8789 106.906L16.043 106.836L16.1133 106.637L16.3008 106.613C16.3711 106.551 16.4609 106.512 16.5703 106.496C16.6797 106.473 16.7422 106.457 16.7578 106.449L16.7109 106.355C17.0391 106.176 17.2383 106.086 17.3086 106.086C17.4102 106.086 17.5391 106.191 17.6953 106.402C17.8125 106.418 17.8711 106.488 17.8711 106.613L18.082 106.789C18.082 106.898 18.2109 107.168 18.4688 107.598V109.473L18.4219 110.457L18.5156 110.691V112.449L18.4688 112.766V113.363L18.5156 113.867L18.4219 114.465C18.4844 114.527 18.5312 114.766 18.5625 115.18L18.7969 115.473V115.766L18.9961 115.859ZM30.6797 115.789L30.3398 115.953L30.2695 116.164C30.1367 116.195 30.0156 116.238 29.9062 116.293L29.7891 116.211L29.6133 116.293L29.2383 115.836V115.309L29.0625 115.156L29.1094 114.418L28.9688 112.883L29.0625 112.379L28.8984 112.109L29.1094 111.992L28.9688 111.781L29.0156 111.559L29.1328 111.465L29.1094 111.172H29.2383V110.691L29.2852 110.457C29.2227 110.441 29.1484 110.367 29.0625 110.234L28.6875 110.41C28.5859 110.605 28.4805 110.734 28.3711 110.797L28.3477 111.055L28.0781 111.172L28.0312 111.512L27.8672 111.629V111.805C27.7109 111.922 27.5977 112.062 27.5273 112.227L27.3633 112.332L27 112.977L26.4258 113.551L26.2383 113.867L25.7344 114.395L25.6055 114.676L24.9141 115.156L24.1406 116.07L23.8828 116.141C23.8047 116.156 23.6836 116.238 23.5195 116.387H23.4492C23.3164 116.387 23.2109 116.258 23.1328 116C22.5312 115.766 22.2148 115.43 22.1836 114.992L22.3711 114.875C22.2617 114.57 22.1992 114.258 22.1836 113.938L22.0547 113.844L22.1367 113.715C22.168 113.668 22.1914 113.59 22.207 113.48C22.2227 113.363 22.2461 113.203 22.2773 113L22.4414 112.109C22.4258 112.078 22.418 112.023 22.418 111.945C22.418 111.859 22.4414 111.77 22.4883 111.676C22.457 111.559 22.4414 111.473 22.4414 111.418C22.4414 111.355 22.457 111.273 22.4883 111.172L22.582 111.148C22.7148 110.969 22.7812 110.816 22.7812 110.691C22.7812 110.613 22.7539 110.551 22.6992 110.504C22.6523 110.457 22.6289 110.426 22.6289 110.41C22.6289 110.355 22.6719 110.316 22.7578 110.293C22.6406 110.27 22.582 110.219 22.582 110.141C22.582 110.062 22.6641 110.023 22.8281 110.023V109.977C22.8281 109.805 22.875 109.648 22.9688 109.508C23.0703 109.359 23.125 109.258 23.1328 109.203L22.9688 109.156L23.2852 108.652V108.535C23.2852 108.199 23.3945 107.91 23.6133 107.668L23.5898 107.234L23.6953 107.164C23.6406 107.094 23.6133 107.016 23.6133 106.93C23.6133 106.883 23.6641 106.859 23.7656 106.859V106.473C23.8438 106.449 23.8828 106.41 23.8828 106.355C23.8828 106.301 23.875 106.258 23.8594 106.227C23.9062 106.156 24.0156 106.027 24.1875 105.84C24.3594 105.652 24.4727 105.496 24.5273 105.371H24.5977C24.7773 105.371 24.8672 105.328 24.8672 105.242C24.8672 105.211 24.8438 105.172 24.7969 105.125C25.1172 105.125 25.2852 105.062 25.3008 104.938L25.7344 104.715L26.9766 104.82V104.914L27.9844 105.125H28.0781C28.2266 105.125 28.3008 105.191 28.3008 105.324L28.418 105.277C28.457 105.418 28.5469 105.488 28.6875 105.488L28.8047 105.465L29.0156 105.676L29.5195 105.805V106.016C29.7461 105.867 30.0352 105.738 30.3867 105.629V106.016H30.2695L30.5039 106.133L30.457 106.18L30.6445 106.789L30.4336 107.023L30.3398 107.422C30.3086 107.555 30.2344 107.719 30.1172 107.914L30.2695 108.219C30.2539 108.242 30.207 108.305 30.1289 108.406C30.0586 108.508 30.0234 108.688 30.0234 108.945C30.0703 108.969 30.0938 109.008 30.0938 109.062L30.0469 109.262L30.0703 109.426L30 109.684L30.0469 109.906L29.9062 110.07L29.9531 110.598L29.8828 110.668L29.9531 110.773L29.8828 110.844C29.8984 110.859 29.9062 110.891 29.9062 110.938C29.9062 111.008 29.8828 111.078 29.8359 111.148L29.9062 111.301L29.7891 111.512C29.7266 111.551 29.6953 111.664 29.6953 111.852L29.7891 112.156L29.5664 112.449C29.6445 112.613 29.7188 112.719 29.7891 112.766C29.6719 112.93 29.5742 113.238 29.4961 113.691L29.6953 113.738L29.6719 113.867C29.6875 113.891 29.6953 113.945 29.6953 114.031C29.6953 114.156 29.6367 114.316 29.5195 114.512H29.6719L29.7422 114.875L30.2227 114.922L30.3867 115.227C30.3398 115.258 30.3164 115.285 30.3164 115.309C30.3164 115.371 30.3945 115.449 30.5508 115.543H30.5273C30.4961 115.543 30.4805 115.551 30.4805 115.566C30.4805 115.605 30.5469 115.68 30.6797 115.789ZM29.4492 107.164L29.3086 106.73L28.9219 106.613L28.2539 106.016C28.1523 105.953 28.0703 105.922 28.0078 105.922C27.9688 105.922 27.9062 105.938 27.8203 105.969L27.7031 105.852H27.3164L27.1992 105.699L26.9297 105.805L26.8125 105.699L26.6133 105.758L26.2383 105.699C26.0586 105.699 25.7773 105.789 25.3945 105.969L25.4414 106.062L25.2305 106.133L25.1836 106.227L24.9141 106.262V106.402C24.7578 106.496 24.5742 106.75 24.3633 107.164C24.2305 107.648 24.0859 108.059 23.9297 108.395L24.1172 108.488L23.8125 108.758L23.9062 108.945C23.7656 109.156 23.6953 109.402 23.6953 109.684V109.812L23.5195 110.07V110.48C23.3945 110.621 23.3242 110.766 23.3086 110.914L23.2148 111.008V111.441L23.1328 111.559C23.1328 111.715 23.1016 111.93 23.0391 112.203L23.168 112.496C23.0664 112.535 22.9531 112.633 22.8281 112.789L22.9219 112.977L22.7812 113.164L22.9688 113.645L22.7578 113.938L22.7812 114.512L22.7109 114.781L22.8281 114.852L22.875 115.016C23.0078 115.07 23.1211 115.16 23.2148 115.285L23.7656 115.156C23.8672 114.922 24.043 114.797 24.293 114.781L24.2461 114.605C24.4883 114.543 24.6133 114.512 24.6211 114.512C24.6367 114.504 24.6562 114.457 24.6797 114.371C24.7031 114.285 24.7734 114.203 24.8906 114.125H24.9375C24.9844 114.125 25.0078 114.094 25.0078 114.031L25.4414 113.527H25.3477L25.6055 113.293C25.6914 113.207 25.8203 113.133 25.9922 113.07L26.168 112.613C26.4648 112.488 26.6328 112.32 26.6719 112.109H26.8125L27.0469 111.805L27 111.605L27.2227 111.559C27.1914 111.504 27.1758 111.465 27.1758 111.441C27.1758 111.418 27.2305 111.332 27.3398 111.184C27.4492 111.027 27.5352 110.898 27.5977 110.797L27.7031 110.844C27.7266 110.656 27.8125 110.512 27.9609 110.41C27.9922 110.285 28.0547 110.188 28.1484 110.117C28.2422 110.039 28.3086 110 28.3477 110H28.5117L28.5352 109.707C28.5664 109.676 28.582 109.645 28.582 109.613C28.582 109.566 28.5586 109.52 28.5117 109.473C28.6523 109.238 28.7656 109.094 28.8516 109.039L28.8984 108.781L29.0625 108.652L29.0156 108.441C29.1094 108.293 29.168 108.148 29.1914 108.008L29.4023 107.797L29.4492 107.164ZM36.1523 107L37.8047 107.07L39.3867 107L39.7734 107.023L39.9375 107H40.8047C40.9688 107 41.0508 107.07 41.0508 107.211C41.0508 107.375 40.9219 107.48 40.6641 107.527C40.6172 107.496 40.5508 107.48 40.4648 107.48C40.3555 107.48 40.2539 107.52 40.1602 107.598L39.8203 107.527L39.1758 107.551C38.8789 107.715 38.582 107.797 38.2852 107.797L37.8281 107.715L37.5938 107.938H37.3711V107.797L36.9609 107.984H36.75L36.6797 108.195C36.5469 108.156 36.3125 108.125 35.9766 108.102C35.9531 108.195 35.9141 108.242 35.8594 108.242C35.8281 108.242 35.7812 108.211 35.7188 108.148L35.3789 108.195L35.1445 108.441L35.0742 109.613L35.1211 110.316L35.0508 111.219L35.0742 112.227L35.1445 112.707V113.141L35.4258 113.738V113.844C35.4258 114.117 35.5859 114.379 35.9062 114.629L35.9766 114.828L36.4102 114.922L36.7266 115.262L37.6172 115.426L38.7891 115.156L39.1289 115.262L39.9609 114.875L40.2773 114.922C40.3867 115.031 40.4414 115.133 40.4414 115.227C40.4414 115.344 40.3398 115.473 40.1367 115.613L39.9609 115.543L39.5859 115.859L38.7891 115.953L38.5195 116.117L38.2383 115.953C37.9727 116.094 37.6914 116.164 37.3945 116.164L36.9141 116.07H36.6562L35.7891 115.566L35.3789 114.992L35.0977 114.676L34.6641 113.527L34.4648 112.449L34.5703 112.016L34.3711 111.781L34.4648 111.512L34.3711 111.078L34.6172 110.891L34.5117 110.668L34.5703 110.387L34.4648 110.07L34.5117 109.613L34.4648 109.379L34.5703 109.309V108.441C34.5234 108.23 34.457 108.125 34.3711 108.125C34.3164 108.125 34.2695 108.156 34.2305 108.219L33.9609 108.102L33.5859 108.195L33.1992 107.914H33C32.8125 107.914 32.7188 107.809 32.7188 107.598L32.7422 107.234L32.5781 107.117L32.6719 106.906L33.0234 106.953L33.293 106.906L33.6797 107.023H34.6875L34.7344 106.473V105.922L34.5703 105.512L34.7578 105.371C34.7891 105.277 34.8047 105.219 34.8047 105.195C34.8047 105.094 34.7422 105.008 34.6172 104.938L34.6641 104L34.4648 103.707L34.5117 103.496C34.3555 103.465 34.2773 103.402 34.2773 103.309L34.4414 102.676C34.5742 102.504 34.6484 102.395 34.6641 102.348C35.1406 102.582 35.3789 102.719 35.3789 102.758V102.781L35.2852 103.016C35.3945 103.242 35.4492 103.418 35.4492 103.543V103.613C35.4023 103.738 35.3789 103.852 35.3789 103.953C35.3789 104.031 35.4023 104.094 35.4492 104.141L35.4258 104.34L35.4492 104.598L35.2383 104.938L35.3789 105.535L35.2852 106.262L35.3789 106.402L35.2383 106.613L35.4258 107.211H35.8594L36.1523 107ZM45.9609 103.227L45.9375 103.449V103.566L45.8086 103.812L45.7148 104.141C45.3242 104.539 45.1328 104.797 45.1406 104.914C45.0469 104.969 44.9414 105.07 44.8242 105.219L44.6367 105.582C44.3945 105.801 44.2734 106 44.2734 106.18C44.1641 106.281 44.0195 106.41 43.8398 106.566C43.832 106.871 43.7148 107.086 43.4883 107.211C43.4414 107.555 43.375 107.766 43.2891 107.844L43.125 107.914L43.0781 107.574C43.0781 107.52 43.1016 107.434 43.1484 107.316L43.125 107.234C43.125 107.047 43.2109 106.891 43.3828 106.766L43.5117 106.508C43.6055 106.336 43.6523 106.234 43.6523 106.203L43.6289 106.086L43.7695 105.898V105.723L43.8633 105.582L44.1094 104.961L44.0859 104.82L44.2031 104.645C44.1875 104.566 44.1797 104.457 44.1797 104.316C44.1797 104.051 44.2695 103.875 44.4492 103.789L44.3672 103.566C44.4688 103.52 44.5195 103.441 44.5195 103.332C44.5195 103.262 44.5117 103.211 44.4961 103.18L44.6133 102.992V102.898C44.6133 102.781 44.668 102.723 44.7773 102.723L44.9297 102.758H45.0469C45.2812 102.758 45.457 102.812 45.5742 102.922L45.8086 102.945L45.832 103.086L45.9609 103.227ZM55.8164 114.148L55.6523 114.336C55.6133 114.391 55.5078 114.633 55.3359 115.062L54.9961 115.309L55.0195 115.449H54.7031L54.3984 115.789H53.9883L53.7188 115.93C53.6406 115.93 53.5547 115.977 53.4609 116.07C53.3594 116.023 53.2539 116 53.1445 116C53.0586 116 52.957 116.023 52.8398 116.07V116.211L52.4062 116.164L52.0664 116.211L51.75 116.164L51.7031 116.234L51.5859 116.164L51.375 116.234H51.2227C51.1133 116.234 50.9961 116.254 50.8711 116.293L50.625 116.211L50.4375 116.34L50.3438 116.234L50.168 116.34C49.9648 116.223 49.7969 116.164 49.6641 116.164C49.6172 116.164 49.5469 116.188 49.4531 116.234C49.3516 116.18 49.2148 116.145 49.043 116.129L48.5156 116.07C48.3516 116.07 48.2227 116.086 48.1289 116.117L48.082 116.023L47.8711 116.164C47.8242 116.102 47.7656 116.07 47.6953 116.07L47.625 115.93C47.1328 115.906 46.8867 115.555 46.8867 114.875L47.3906 114.805L47.3672 114.629L47.4844 114.465L47.5547 114.605H47.6953V114.723L47.918 114.605C48.043 114.629 48.1055 114.688 48.1055 114.781C48.1055 114.828 48.082 114.898 48.0352 114.992L48.2461 115.016V115.379L48.8555 115.473L49.0898 115.684L49.1602 115.566L52.2305 115.379L53.2852 115.18L53.3438 115.062L53.6016 115.016L53.6719 114.922C54.0391 114.852 54.3594 114.723 54.6328 114.535L54.7031 114.605L54.75 114.465L54.9258 114.324L54.9492 114.242L54.832 114.078L54.8789 113.867L54.6094 113.645L54.5625 113.457C54.4375 113.41 54.3594 113.363 54.3281 113.316L54.2227 113.363L53.9883 113.141H53.8945L53.7891 113H53.5547C53.5078 112.875 53.418 112.812 53.2852 112.812L53.1211 112.836C52.8555 112.836 52.6172 112.754 52.4062 112.59H52.1602L51.8555 112.402L51.7031 112.496L51.6328 112.379H51.4688L51.1992 112.156L50.4844 111.852L50.2148 111.605L49.4062 111.465L49.3828 111.395L48.7031 110.914L48.3984 110.141L48.1523 109.766L48.082 108.652L48.1523 108.535C48.1523 108.223 48.2344 107.949 48.3984 107.715C48.6953 107.543 48.8477 107.375 48.8555 107.211L49.0195 107.234C49.082 107.039 49.2305 106.848 49.4648 106.66L49.7578 106.402L51.1523 105.805L51.8555 105.676L52.5469 105.465L53.625 105.535L53.6719 105.676H53.7422C53.875 105.676 53.9805 105.719 54.0586 105.805V106.016L54.3516 106.227C54.2656 106.602 54.2227 106.812 54.2227 106.859C54.2227 107 54.1523 107.07 54.0117 107.07C53.9492 107.07 53.8359 106.902 53.6719 106.566L53.0273 106.52L52.8633 106.566C52.6133 106.379 52.4688 106.285 52.4297 106.285C52.3828 106.285 52.3594 106.309 52.3594 106.355L52.1367 106.52C51.8711 106.52 51.6562 106.59 51.4922 106.73C51.1953 106.785 50.9883 106.883 50.8711 107.023H50.6016L50.4023 107.176C50.3477 107.215 50.1914 107.27 49.9336 107.34L49.8398 107.457L49.7109 107.527L49.3828 107.844L49.1602 108.195C48.9336 108.344 48.8164 108.441 48.8086 108.488L48.5625 109.473L48.6797 109.543V109.613C48.6797 109.879 48.8086 110.105 49.0664 110.293V110.41L49.7109 110.797H49.8633L50.2148 111.148H50.6953L50.9883 111.395L51.5391 111.465L51.7031 111.605L52.7344 111.922C52.7344 112.016 52.793 112.062 52.9102 112.062C53.1055 112.062 53.2852 112.109 53.4492 112.203C53.6133 112.297 53.7695 112.355 53.918 112.379L53.9414 112.496L54.1523 112.613H54.6094L55.0195 112.883C55.0664 113.055 55.1719 113.199 55.3359 113.316L55.3125 113.387L55.4297 113.551L55.6406 113.598L55.5469 113.773C55.6953 113.898 55.7852 114.023 55.8164 114.148ZM83.3789 113.961L83.25 114.148L83.0859 114.195C83.0859 114.352 83.0312 114.473 82.9219 114.559C82.8203 114.645 82.7695 114.711 82.7695 114.758V114.805L82.6992 114.852C82.6523 114.961 82.5664 115.059 82.4414 115.145C82.3242 115.223 82.25 115.262 82.2188 115.262L82.0078 115.227L81.9844 115.473C81.8516 115.598 81.7773 115.66 81.7617 115.66C81.7461 115.66 81.6445 115.645 81.457 115.613C81.2852 115.715 81.1094 115.766 80.9297 115.766C80.8047 115.766 80.5391 115.73 80.1328 115.66C80.0781 115.582 80.0234 115.543 79.9688 115.543C79.9141 115.543 79.8477 115.566 79.7695 115.613C79.7305 115.504 79.6055 115.395 79.3945 115.285L79.4414 115.109C79.2617 115.031 79.1719 114.871 79.1719 114.629L79.1953 114.418L78.9141 114.195L78.7617 113.48L78.5508 113.094V112.93L78.3867 112.156L78.4102 111.852L78.2344 111.008L78.2109 110.645L78.2578 109.906L78.1641 108.969L77.8477 109.309L77.3438 110.188L77.1328 110.691C76.8203 110.91 76.6211 111.168 76.5352 111.465C76.3711 111.465 76.2891 111.641 76.2891 111.992C76.1953 112.094 76.1133 112.207 76.043 112.332C75.9727 112.449 75.9141 112.543 75.8672 112.613C75.8281 112.684 75.8086 112.723 75.8086 112.73V112.789C75.543 113.031 75.375 113.301 75.3047 113.598C75.2656 113.629 75.1875 113.75 75.0703 113.961C74.9531 114.172 74.7461 114.445 74.4492 114.781C74.3008 114.844 74.1797 114.988 74.0859 115.215C74.0234 115.363 73.9375 115.453 73.8281 115.484C73.7266 115.516 73.6758 115.598 73.6758 115.73V115.836C73.5508 115.836 73.3125 115.914 72.9609 116.07C72.8203 116.055 72.7227 115.961 72.668 115.789L72.6211 115.449L72.4805 115.156V114.875L72.2812 114.078C72.2969 114.031 72.3047 113.977 72.3047 113.914C72.3047 113.836 72.2656 113.73 72.1875 113.598L72.2812 112.789L72.1875 112.613L72.2812 112.227L72.2344 112.016V111.852L72.1406 111.629L72.3047 111.277L72.1875 110.527L72.2344 110.316L72.3047 109.426L72.1406 108.875L72.1875 108.441L72.0703 108.102C71.9219 107.734 71.8281 107.496 71.7891 107.387C71.7578 107.27 71.707 107.211 71.6367 107.211C71.6211 107.195 71.5898 107.188 71.543 107.188C71.4883 107.188 71.2891 107.301 70.9453 107.527L70.6055 107.984L70.3125 108.277L69.668 109.156L69.6211 109.426L69.2344 109.859L69.0703 110.316C68.9766 110.402 68.8984 110.539 68.8359 110.727C68.7812 110.914 68.7148 111.02 68.6367 111.043C68.5664 111.066 68.4688 111.125 68.3438 111.219L68.3203 111.652C68.25 111.754 68.1797 111.879 68.1094 112.027C68.0391 112.176 67.9531 112.297 67.8516 112.391C67.75 112.484 67.6758 112.648 67.6289 112.883C67.4492 112.883 67.3594 112.992 67.3594 113.211C67.3125 113.375 67.2266 113.457 67.1016 113.457C67.0391 113.613 67.0078 113.727 67.0078 113.797V113.867C66.8125 114.031 66.7148 114.133 66.7148 114.172C66.7148 114.219 66.7383 114.27 66.7852 114.324C66.6055 114.41 66.4648 114.559 66.3633 114.77C66.2617 114.98 66.1797 115.109 66.1172 115.156V115.262C66.1172 115.371 66.0859 115.449 66.0234 115.496C65.9609 115.543 65.8516 115.645 65.6953 115.801C65.5469 115.949 65.4219 116.023 65.3203 116.023C65.2031 116.023 65.1172 115.84 65.0625 115.473C65.0781 115.441 65.0859 115.395 65.0859 115.332C65.0859 115.207 65.0312 115.102 64.9219 115.016V114.676C64.9219 114.551 64.9531 114.426 65.0156 114.301L64.8984 113.773L64.9219 113.387L64.8984 112.977V112.883C64.8984 112.711 64.9375 112.582 65.0156 112.496L65.0625 112.309C65.0625 112.246 65.0508 112.125 65.0273 111.945C65.0039 111.766 64.9922 111.66 64.9922 111.629V111.242C65.0391 111.086 65.1094 110.961 65.2031 110.867L65.0156 110.621C65.0781 110.566 65.0977 110.512 65.0742 110.457C65.0508 110.395 65.0391 110.348 65.0391 110.316C65.0391 110.262 65.0781 110.168 65.1562 110.035C65.2422 109.895 65.2969 109.754 65.3203 109.613L65.1562 109.156L65.2266 108.922L65.0859 108.102L65.1562 107.773L65.0156 107.117L65.0625 106.684L64.8984 106.309C65.0625 105.934 65.2227 105.75 65.3789 105.758L65.4727 105.805L65.543 106.133C65.7461 106.18 65.8477 106.309 65.8477 106.52L65.8008 107.023C65.8008 107.125 65.8672 107.188 66 107.211C65.8516 107.438 65.7773 107.605 65.7773 107.715V107.797L65.9062 109.016L65.8477 109.93L65.7539 110.188L65.8477 110.48L65.7773 110.598L65.8828 110.773C65.7656 110.859 65.707 110.961 65.707 111.078L65.7539 111.277C65.7539 111.395 65.707 111.488 65.6133 111.559L65.707 112.227L65.6133 112.473C65.543 112.645 65.5195 112.789 65.543 112.906C65.5742 113.023 65.5898 113.109 65.5898 113.164C65.5898 113.266 65.5742 113.332 65.543 113.363C65.6211 113.52 65.6602 113.605 65.6602 113.621C65.6602 113.684 65.6211 113.766 65.543 113.867L65.7773 114.031L66.2344 113.434L66.3281 113.094C66.4141 113.047 66.4844 112.98 66.5391 112.895C66.5938 112.801 66.6328 112.703 66.6562 112.602C66.6797 112.5 66.7734 112.336 66.9375 112.109C66.9688 112.109 67.0156 112.07 67.0781 111.992C67.1484 111.914 67.2305 111.801 67.3242 111.652C67.4258 111.504 67.543 111.359 67.6758 111.219C67.6992 111.141 67.7344 111.062 67.7812 110.984C67.8359 110.898 67.8867 110.828 67.9336 110.773C67.9883 110.719 68.0547 110.559 68.1328 110.293L68.4023 109.812L68.4375 109.637C68.4609 109.574 68.5391 109.469 68.6719 109.32L69.1172 108.852C69.1719 108.852 69.2656 108.711 69.3984 108.43C69.5312 108.148 69.6797 107.934 69.8438 107.785C70.0078 107.629 70.0938 107.496 70.1016 107.387C70.2422 107.363 70.3125 107.289 70.3125 107.164C70.4844 107.094 70.582 106.984 70.6055 106.836L70.6758 106.859C70.7539 106.859 70.8438 106.707 70.9453 106.402C71.1797 106.191 71.3477 106.086 71.4492 106.086C71.457 106.086 71.6484 106.133 72.0234 106.227C72.0547 106.289 72.0703 106.34 72.0703 106.379C72.0703 106.41 72.0547 106.457 72.0234 106.52L72.1875 106.566C72.1875 106.645 72.3008 106.844 72.5273 107.164V107.551L72.7383 107.797V108.102C72.918 108.484 73.0078 108.797 73.0078 109.039L72.9141 109.426L73.0078 109.766L72.7852 110.023L72.9141 110.773C72.8594 110.938 72.832 111.129 72.832 111.348L72.9141 111.992L72.8555 112.203L72.9141 112.449L72.832 112.543C72.9492 113.051 73.0078 113.484 73.0078 113.844L72.9609 114.031L72.8555 114.125C72.9727 114.297 73.0312 114.48 73.0312 114.676L73.4414 114.805L74.543 113.457C74.5898 113.41 74.6602 113.277 74.7539 113.059C74.8555 112.832 74.9453 112.652 75.0234 112.52C75.1094 112.52 75.168 112.406 75.1992 112.18C75.2383 111.945 75.332 111.812 75.4805 111.781C75.4805 111.664 75.4961 111.582 75.5273 111.535C75.5586 111.48 75.6953 111.375 75.9375 111.219V111.172C75.9375 110.953 76.0898 110.723 76.3945 110.48C76.4648 110.238 76.5664 110.016 76.6992 109.812C76.918 109.594 77.0586 109.422 77.1211 109.297L77.3672 108.828C77.4688 108.648 77.543 108.465 77.5898 108.277C77.8477 108.184 78.0625 107.871 78.2344 107.34C78.4141 107.293 78.5352 107.125 78.5977 106.836L78.9844 106.66L79.3125 106.836L79.1953 106.953L79.3594 107.117C79.2344 107.164 79.1719 107.223 79.1719 107.293C79.1719 107.363 79.2109 107.418 79.2891 107.457L79.125 107.773L78.9844 108.875C79.0547 108.914 79.1094 108.969 79.1484 109.039C79.0234 109.227 78.9609 109.5 78.9609 109.859L78.9844 110.293L78.9375 110.457L79.0078 110.773C78.9922 110.797 78.9609 110.832 78.9141 110.879C78.875 110.918 78.8555 110.961 78.8555 111.008C78.8555 111.055 78.8828 111.125 78.9375 111.219C79.0312 111.25 79.0781 111.355 79.0781 111.535C79.0781 111.582 79.0547 111.629 79.0078 111.676C79.0391 111.715 79.0547 111.758 79.0547 111.805C79.0547 111.828 79.0312 111.875 78.9844 111.945C78.9844 112.25 79.0586 112.574 79.207 112.918C79.2695 113.066 79.332 113.352 79.3945 113.773L79.6992 113.938L79.8164 114.465C79.9961 114.559 80.1094 114.664 80.1562 114.781L80.4492 114.898L80.8008 114.969C80.9258 115 81.0156 115.016 81.0703 115.016C81.1562 115.016 81.2695 114.988 81.4102 114.934C81.5508 114.879 81.6641 114.824 81.75 114.77C81.8359 114.707 81.9844 114.629 82.1953 114.535C82.3281 114.363 82.4492 114.172 82.5586 113.961L82.875 113.82L83.0156 113.574L83.3438 113.598C83.3438 113.816 83.3555 113.938 83.3789 113.961ZM91.4648 113.844C91.582 114.023 91.6406 114.156 91.6406 114.242C91.6406 114.305 91.5664 114.438 91.418 114.641C91.2773 114.844 91.168 115.059 91.0898 115.285L90.9141 115.309L90.6562 115.812L90.3633 115.859L89.7188 116.293L89.6016 116.551L89.4023 116.527L89.1914 116.773H88.8516L88.7812 116.891L88.6172 116.867C88.4453 116.867 88.293 116.945 88.1602 117.102L88.0078 116.984C87.8438 117.062 87.7109 117.102 87.6094 117.102C87.4297 117.102 87.2852 117.062 87.1758 116.984C87.0977 117 86.9922 117.008 86.8594 117.008L86.7188 116.891C86.2891 116.867 86 116.746 85.8516 116.527V116.234L85.4648 116.023L85.3711 115.777C85.3398 115.699 85.2539 115.598 85.1133 115.473V115.285L84.8438 114.148L84.8906 113.34L84.9844 112.883V112.379L85.1133 111.945L85.0664 111.629C85.1523 111.559 85.207 111.473 85.2305 111.371C85.2539 111.262 85.3008 111.141 85.3711 111.008C85.3398 110.867 85.3086 110.668 85.2773 110.41L85.4883 110.234L85.2773 110C85.3867 109.82 85.4414 109.707 85.4414 109.66L85.3242 108.945C85.3242 108.773 85.3477 108.605 85.3945 108.441C85.4883 108.582 85.5938 108.652 85.7109 108.652C85.7734 108.652 85.9258 108.621 86.168 108.559C86.1523 108.512 86.1445 108.457 86.1445 108.395C86.1445 108.285 86.207 108.188 86.332 108.102C86.457 107.711 86.6328 107.344 86.8594 107C87.0078 106.883 87.082 106.723 87.082 106.52H87.1992L87.3164 106.285L87.457 106.227C87.4883 106.125 87.5703 106.008 87.7031 105.875C87.8828 105.82 88.0977 105.637 88.3477 105.324C88.3789 105.34 88.4453 105.348 88.5469 105.348C88.5703 105.348 88.6328 105.258 88.7344 105.078C89.0078 104.984 89.1523 104.938 89.168 104.938C89.2383 104.938 89.3086 104.984 89.3789 105.078L89.6016 105.031L89.7188 105.125H89.8594C89.9453 105.383 90.1055 105.512 90.3398 105.512H90.4102C90.4336 105.621 90.4844 105.703 90.5625 105.758L90.457 105.805C90.7305 105.938 90.8672 106.246 90.8672 106.73L90.7969 107L90.8672 107.668L90.75 107.773L90.4805 108.488L90 109.086L89.9766 109.426C89.4062 109.895 88.9375 110.215 88.5703 110.387C88.5391 110.48 88.4883 110.527 88.418 110.527C88.3867 110.527 88.3242 110.512 88.2305 110.48L87.7031 110.844H87.3867L86.9297 111.055L86.7305 110.938C86.6758 110.906 86.5117 110.875 86.2383 110.844C85.9961 111.07 85.875 111.363 85.875 111.723L85.7109 111.922C85.6797 112.219 85.6406 112.426 85.5938 112.543L85.4648 112.613L85.5938 113.48L85.4648 113.598L85.4883 113.867L85.4648 114.195C85.4648 114.25 85.4844 114.398 85.5234 114.641C85.5625 114.883 85.625 115.023 85.7109 115.062C85.6719 115.172 85.7461 115.305 85.9336 115.461C86.1289 115.617 86.3359 115.727 86.5547 115.789V115.93L87.1758 116.023L88.0664 116.07L88.6641 116C88.9062 115.828 89.082 115.723 89.1914 115.684L89.3789 115.402H89.6016L89.625 115.285C89.9688 115.168 90.1562 115.09 90.1875 115.051C90.2266 115.004 90.2461 114.961 90.2461 114.922C90.293 114.828 90.3633 114.781 90.457 114.781L90.5273 114.629C90.8789 114.574 91.0977 114.344 91.1836 113.938C91.2617 113.875 91.3555 113.844 91.4648 113.844ZM89.4961 108.371C89.5586 108.363 89.6641 108.266 89.8125 108.078L89.8828 107.797C90.0781 107.469 90.1914 107.262 90.2227 107.176C90.2539 107.082 90.2695 106.969 90.2695 106.836C90.2695 106.703 90.2148 106.469 90.1055 106.133L89.625 105.969C89.5 106 89.418 106.016 89.3789 106.016L89.2383 105.969C89.1211 105.969 89.0391 106.039 88.9922 106.18C88.8516 106.18 88.6367 106.238 88.3477 106.355L88.2773 106.52C88.2461 106.504 88.2148 106.496 88.1836 106.496C88.1602 106.496 88.1367 106.5 88.1133 106.508C88.0977 106.516 88.082 106.527 88.0664 106.543C88.0508 106.559 88.0352 106.578 88.0195 106.602C88.0039 106.617 87.9883 106.641 87.9727 106.672C87.9648 106.703 87.9531 106.738 87.9375 106.777C87.9297 106.809 87.918 106.844 87.9023 106.883C87.8945 106.914 87.8477 106.98 87.7617 107.082L87.5859 107.293L87.2461 107.938L87.0703 108.09C87.0156 108.137 86.9727 108.238 86.9414 108.395C86.9102 108.551 86.6992 108.926 86.3086 109.52L86.4727 109.613L86.5547 109.812L86.9531 109.93C87.1797 109.773 87.4219 109.668 87.6797 109.613L87.75 109.473C87.8359 109.504 87.8984 109.52 87.9375 109.52C88.0156 109.52 88.0898 109.473 88.1602 109.379L88.4414 109.332L88.6172 109.039H88.7812L88.8984 108.781C89.1094 108.781 89.3086 108.684 89.4961 108.488V108.371ZM102.516 108.195C102.516 108.453 102.25 108.832 101.719 109.332H101.121C100.98 109.184 100.836 109.102 100.688 109.086L100.617 108.852L100.477 108.758L100.453 108.418C100.453 108.402 100.539 108.203 100.711 107.82H100.887L100.98 107.645V107.551L101.238 107.645L101.438 107.621L101.414 107.527C101.539 107.48 101.633 107.457 101.695 107.457L101.965 107.527L102.129 107.867L102.516 108.195ZM102.516 115.285L102.375 115.66C102.234 115.715 102.09 115.805 101.941 115.93C101.793 116.055 101.656 116.117 101.531 116.117H101.484C101.453 116.117 101.371 116.148 101.238 116.211C101.145 116.094 100.992 115.977 100.781 115.859C100.578 115.734 100.477 115.645 100.477 115.59C100.477 115.574 100.492 115.566 100.523 115.566L100.57 115.016L100.711 114.852L100.688 114.652C100.68 114.598 100.883 114.422 101.297 114.125C101.453 114.18 101.668 114.219 101.941 114.242L102.199 114.605L102.375 114.676V114.852L102.492 114.922L102.445 115.18L102.516 115.285ZM118.547 111.301L118.477 111.465C118.445 111.527 118.422 111.617 118.406 111.734L118.383 111.922L117.949 112.543L117.832 112.789L117.539 112.93C117.445 112.977 117.34 113.07 117.223 113.211C116.832 113.32 116.539 113.449 116.344 113.598H116.121L115.91 113.645L115.816 113.844H115.43L115.383 113.938L115.23 113.914C115.207 113.914 115.156 113.961 115.078 114.055C115 114.141 114.91 114.188 114.809 114.195C114.73 114.148 114.664 114.125 114.609 114.125C114.492 114.125 114.324 114.184 114.105 114.301L113.672 114.195L113.391 114.395C113.359 114.379 113.309 114.371 113.238 114.371C113.176 114.371 113.066 114.395 112.91 114.441C112.754 114.488 112.625 114.512 112.523 114.512H112.359C112.273 114.512 112.117 114.547 111.891 114.617C111.664 114.688 111.469 114.723 111.305 114.723C111.18 114.723 111.066 114.707 110.965 114.676L110.602 114.781L110.215 114.629L109.98 114.781L109.84 114.723L109.664 115.062L109.453 114.875L109.16 115.016L109.066 114.852C109.012 114.883 108.875 114.906 108.656 114.922L108.586 115.402L108.305 115.766L108.211 116.012C108.188 116.082 108.059 116.277 107.824 116.598L107.742 116.527H107.625L107.672 116.117L107.648 115.52L107.297 115.285C107.211 115.199 107.129 115.156 107.051 115.156L106.57 115.402H106.207L106.02 115.262L105.973 115.062L106.184 114.852L106.207 114.676L107.051 114.465C107.113 114.434 107.195 114.418 107.297 114.418C107.391 114.418 107.438 114.395 107.438 114.348V114.324L107.297 113.844C107.281 113.812 107.273 113.77 107.273 113.715C107.273 113.66 107.289 113.594 107.32 113.516C107.352 113.438 107.367 113.395 107.367 113.387L107.297 112.227L107.414 111.945V111.395L107.578 111.008L107.297 110.48L107.578 109.859L107.438 108.219L107.508 107.668V107.164L107.297 106.613V105.758L107.027 105.324V105.078L106.383 105.008L105.879 105.219L105.105 105.277C105.035 105.184 104.988 105.066 104.965 104.926C104.949 104.785 104.91 104.582 104.848 104.316C105.09 104.137 105.297 104.047 105.469 104.047L105.656 104.07C105.695 104.07 105.754 104.023 105.832 103.93C106.066 103.867 106.344 103.836 106.664 103.836C106.859 103.977 107.051 104.047 107.238 104.047C107.301 104.047 107.391 104.031 107.508 104C107.555 104.094 107.602 104.141 107.648 104.141C107.68 104.141 107.816 104.094 108.059 104L108.352 104.141L108.703 104.047L109.43 104.211L109.84 104.48L110.367 104.387L110.531 104.691L110.824 104.773L111.246 105.031L111.516 105.078L111.855 105.242L112.043 105.219C112.199 105.219 112.352 105.285 112.5 105.418C112.797 105.426 113.148 105.664 113.555 106.133H113.777C113.965 106.32 114.219 106.449 114.539 106.52L115.09 106.953L115.711 107.527C115.836 107.621 115.934 107.668 116.004 107.668C116.027 107.668 116.09 107.629 116.191 107.551L116.297 107.621L116.367 108.008C116.773 108.359 117.086 108.672 117.305 108.945C117.523 109.211 117.645 109.402 117.668 109.52C117.699 109.637 117.809 109.75 117.996 109.859V110.164C117.996 110.328 118.066 110.48 118.207 110.621C118.207 110.777 118.262 110.914 118.371 111.031C118.488 111.148 118.547 111.23 118.547 111.277V111.301ZM117.656 111.441L117.586 110.773L116.625 109.473H116.461L116.191 108.828L115.91 108.805L115.594 108.559L115.5 108.219C115.352 108.078 115.055 107.938 114.609 107.797L114.422 107.457L112.523 106.309L112.184 106.332C112.066 106.332 111.922 106.281 111.75 106.18C111.664 106.07 111.57 106.016 111.469 106.016C111.422 106.016 111.367 106.031 111.305 106.062L111.176 105.781L110.824 105.805C110.793 105.781 110.699 105.758 110.543 105.734C110.387 105.711 110.246 105.66 110.121 105.582L110.027 105.629C110.027 105.52 109.957 105.465 109.816 105.465C109.488 105.207 109.047 105.078 108.492 105.078C108.445 105.078 108.391 105.094 108.328 105.125L108.398 105.395L108.281 105.758C108.242 105.805 108.223 105.867 108.223 105.945C108.223 106.078 108.297 106.207 108.445 106.332L108.199 106.73C108.207 106.77 108.25 106.875 108.328 107.047C108.406 107.211 108.445 107.348 108.445 107.457C108.445 107.488 108.434 107.559 108.41 107.668C108.387 107.77 108.375 107.836 108.375 107.867C108.375 107.906 108.414 108.023 108.492 108.219L108.328 108.277L108.398 108.781V109.707L108.492 109.859L108.223 110.293L108.398 110.457L108.176 111.055L108.281 111.605L108.035 112.156L108.281 112.613L108.223 113.094L108.328 113.363L108.176 113.715L108.398 114.301L109.887 114.125C109.902 114.125 109.945 114.105 110.016 114.066C110.086 114.027 110.152 114.008 110.215 114.008C110.301 114.008 110.441 114.027 110.637 114.066C110.832 114.105 110.988 114.125 111.105 114.125C111.488 114.125 111.863 113.996 112.23 113.738C112.395 113.723 112.59 113.715 112.816 113.715L113.391 113.738C113.578 113.738 113.746 113.676 113.895 113.551C114.059 113.535 114.215 113.484 114.363 113.398C114.512 113.312 114.609 113.27 114.656 113.27C114.742 113.27 114.816 113.301 114.879 113.363C115.035 113.363 115.164 113.312 115.266 113.211L115.688 113.164L115.734 112.93L115.91 113L116.168 112.883H116.344L116.555 112.613H116.719L117.633 111.922L117.656 111.441Z" fill="black"/>
<path d="M49.0664 93.2225C48.3397 86.078 48.7052 64.6681 51.4311 55.5412C54.3397 45.8023 66.0624 29.4821 71.9417 21.5565C74.5684 18.0156 78.799 15.2911 80.475 12.7637C82.7694 9.30383 71.0021 18.1906 67.4397 23.2603C63.5298 28.8247 61.4752 34.1359 57.667 44.9977C55.4179 51.4128 53.5885 57.6209 52.4745 63.5269C51.2854 69.8314 51.2381 76.6895 50.6863 83.8292C50.4123 85.3663 50.1208 86.6675 50.0987 88.5964C50.0765 90.5252 50.3325 93.0424 50.5963 95.6357" stroke="black" stroke-linecap="round"/>
<path d="M81.6444 34.679C80.8324 26.6954 81.7073 10.2943 83.839 7.70131C94.2623 -4.97751 63.5146 7.84192 61.2693 6.79229C60.1724 6.27954 59.7777 4.8183 61.5932 3.97858C72.2304 -0.941321 78.3864 2.89988 82.2855 3.35101C83.8277 3.52944 83.8383 5.73623 83.7804 7.2513C81.794 14.9351 78.7886 23.3968 78.4536 26.4172C78.4101 28.1363 78.6234 30.2339 78.8433 32.395" stroke="black" stroke-linecap="round"/>
</svg>
