<svg width="73" height="67" viewBox="0 0 73 67" fill="none" xmlns="http://www.w3.org/2000/svg">
<path d="M32.7237 28.0273C29.8185 28.9909 23.9936 32.8742 19.3584 39.6773C14.4828 46.8333 12.7816 52.8163 13.2487 58.4223C14.1341 69.047 39.0013 60.6414 46.8044 56.0354C59.1334 48.7579 59.469 37.8086 60.9508 31.2099C61.2389 29.9269 59.031 29.0201 56.8412 28.5237C47.5612 26.4202 41.5123 30.9471 33.9719 35.7867C24.2495 42.0267 23.0008 49.8965 19.8402 56.9551C19.0771 58.6592 18.6212 60.1158 19.3365 61.3421C24.6992 70.5353 44.3737 59.6778 55.5492 51.9039C64.4516 45.7111 69.1919 39.7357 71.8927 33.6479C72.5926 32.0702 72.1409 30.0128 71.4182 28.5383C68.5886 22.7647 56.6368 23.6476 47.5928 24.8594C40.9645 25.7474 32.2858 31.8814 23.2709 37.4947C11.624 44.747 5.97848 49.8965 3.77404 55.9843C3.18637 57.6072 3.52586 59.6194 4.2485 61.0939C5.68429 64.0235 9.8326 65.0064 14.4386 65.7364C25.2974 67.4573 32.1982 61.1377 38.7823 58.4515C46.5449 55.2845 53.1331 49.9549 58.4982 45.3198C63.2788 41.1896 63.3815 34.3779 62.6589 30.2464C61.2074 21.9483 43.9649 23.6476 37.1253 25.1002C34.2128 26.0711 31.2784 28.0127 28.366 30.9252C26.8988 32.3924 25.4535 33.8377 23.9644 35.3268" stroke="black" stroke-linecap="round"/>
<path d="M21.0447 39.7065C24.9134 43.5752 33.6582 54.247 38.797 60.1377C35.1765 53.8528 30.3004 45.5607 28.5996 42.6482C27.8624 41.181 27.3806 39.7357 26.8843 38.2466" stroke="black" stroke-linecap="round"/>
<path d="M31.264 33.867C34.1692 35.794 38.5489 43.0789 40.016 46.7432C42.9975 54.1893 33.702 35.3415 33.2129 33.8743C31.7052 29.3511 38.0671 45.0206 41.2278 52.5755C41.9484 54.2979 42.4468 55.7362 41.7314 54.7945C38.6711 50.7662 35.6583 45.079 33.7093 43.1227C32.3697 41.7781 34.1838 48.4513 33.4611 49.9185C32.3152 52.2451 28.8406 45.079 28.3442 42.4C28.1829 41.5297 30.7384 42.13 32.2129 43.1008C35.0797 44.9884 37.089 48.9331 39.0379 50.6484C44.0051 55.0203 35.1765 38.2758 34.9064 33.1516C34.8518 32.1155 37.0744 32.4071 38.3007 33.1297C43.7127 36.3189 44.8702 45.0206 46.1111 49.1959C49.0088 58.9457 38.0817 35.3415 37.1109 33.8743C36.6072 39.6773 39.527 46.9914 41.2278 49.9039C41.965 51.3711 42.4468 52.8164 45.8629 55.7654" stroke="black" stroke-linecap="round"/>
<path d="M28.3441 32.4072C29.3077 31.9401 33.191 24.1734 34.4246 17.8302C34.9975 14.8846 35.6436 11.0198 34.6801 6.40654C34.1882 4.05154 31.7895 2.27504 29.3515 1.28231C26.9135 0.289581 24.0229 0.289581 22.052 1.01223C8.16895 6.10268 19.0884 40.641 19.5848 44.3346C21.1708 56.1364 18.1249 19.3412 19.0884 8.39199C19.4255 4.5614 21.979 4.66926 23.6944 5.39191C30.6851 8.33692 32.2275 16.3192 33.9355 24.0932C34.6659 27.4172 34.1837 32.7868 34.1837 33.108C34.1837 44.5054 35.6436 12.9907 33.7166 5.69119C32.9145 2.65314 27.9354 3.20937 25.4682 3.93202C23.0009 4.65466 22.0374 6.09996 21.3002 7.80803C18.2694 14.8297 21.0447 26.0129 21.0447 33.5825C21.0447 38.057 20.0811 22.2026 17.8986 19.531C13.8242 14.5436 7.92023 15.8666 5.00774 15.1367C3.56435 14.7749 2.09525 14.8885 1.35071 17.5382C-0.809061 25.2245 1.56969 32.3926 3.75223 35.3051C8.42893 41.5459 17.5993 42.1301 23.4681 42.8674C23.7089 42.8976 21.5702 43.59 19.8549 43.3565C13.0551 42.4305 6.00777 33.4292 1.10253 26.5896C0.199845 25.3309 0.606163 23.6771 1.32881 22.6917C4.67477 18.129 10.8108 19.2682 13.7233 19.75C15.2469 20.002 16.6358 21.1953 15.935 21.6916C12.9766 23.7872 7.92023 21.7062 5.00774 21.6989C3.46574 21.6951 2.09525 23.6187 1.35071 25.0859C-0.00966263 27.7666 0.606163 31.4145 1.32881 34.5752C3.49675 36.2906 6.9129 38.2322 11.278 40.4221C13.716 41.1666 16.6066 41.1666 19.5848 41.1666" stroke="black" stroke-linecap="round"/>
</svg>
