<svg width="158" height="120" viewBox="0 0 158 120" fill="none" xmlns="http://www.w3.org/2000/svg">
<path d="M38.0493 35.2237C30.7285 23.1865 26.3879 9.76282 26.8154 5.88215C27.012 4.09851 28.0982 2.85665 29.1801 1.98204C31.2795 0.284944 34.5768 0.239295 37.5958 0.880675C43.1779 2.06657 41.9365 21.6964 40.6472 33.6883C40.478 35.2623 39.7856 36.4935 39.5653 36.2991C35.8506 33.0215 41.4959 25.3244 41.5089 12.1664C41.5117 9.29032 40.2261 8.03952 39.1442 6.95112C38.0623 5.86271 36.7795 5.00754 35.4773 4.78079C34.1751 4.55404 32.8924 4.98162 31.804 5.84328C27.2912 9.41587 26.8284 17.4723 26.8154 26.7691C26.8055 33.9308 34.1492 37.3746 35.4514 38.2427C39.9987 41.2743 23.8482 24.9098 17.1235 20.9773C14.2408 19.2915 9.56943 20.1027 5.0409 21.1781C3.02967 21.6557 1.79512 22.6811 1.13431 24.832C-0.513434 30.1953 1.32866 35.6383 3.47956 38.6573C11.6498 50.1253 36.7406 41.2747 33.767 40.6268C19.9973 37.6269 8.26076 39.5514 5.6758 37.6143C4.32098 36.599 3.09084 35.2496 2.43002 33.306C1.76921 31.3624 1.76921 28.7969 3.05197 27.0477C5.79988 23.3006 13.3918 23.5622 20.0777 23.776C28.566 24.0474 34.1363 31.7512 36.9674 36.2862C40.0521 41.2274 26.4138 45.123 21.4382 49.6774C16.8772 53.8524 14.3118 60.6716 14.0721 68.2386C14.0196 69.8958 15.9962 70.6227 18.3674 71.0633C20.7385 71.5038 24.1592 71.5038 26.5628 70.6486C30.7941 69.1431 32.8535 65.0382 35.0109 61.8118C37.6197 57.9103 36.7536 49.1008 36.7536 42.1752C36.7536 34.8872 33.7475 59.7905 30.9358 67.5907C29.433 71.7598 25.1051 73.2271 21.8788 73.875C19.961 74.2601 17.3697 74.0952 16.048 73.0263C8.07832 66.5802 26.3619 50.7982 30.4758 44.7472C34.0029 39.5594 37.6088 35.2496 40.6278 30.0603C42.1901 27.3749 44.9425 25.2985 48.1754 23.5752C51.0806 22.0265 56.1505 20.9708 62.4088 21.826C64.9425 22.1722 65.674 24.3915 66.1146 26.1277C66.5551 27.864 66.5551 29.5744 66.1275 31.0968C64.5832 36.5957 52.38 39.9401 43.2581 42.9915C41.5609 43.5593 39.8115 43.8532 40.6408 44.0734C50.2229 46.6187 58.3144 42.1428 64.8059 39.9855C67.6969 39.0247 67.8508 32.2435 67.2095 25.1236C66.9479 22.2198 65.2853 20.9967 62.9142 20.3359C57.2987 18.7709 51.8876 20.9578 48.8686 23.5428C43.9376 27.7648 42.377 33.9021 40.861 37.5949C40.7495 37.8666 40.6408 35.6901 41.2821 34.3815C44.322 28.1789 55.2824 26.5942 62.8559 25.0782C64.7801 24.693 66.9438 24.8579 68.4728 25.4993C70.0017 26.1407 70.8569 27.4235 71.0837 28.9395C71.3104 30.4554 70.8828 32.1658 69.3798 33.4745C62.21 39.7171 53.6239 38.6703 47.3591 40.4001C45.8366 40.8342 44.5538 41.2617 43.2516 41.6958C41.9494 42.1299 40.6667 42.5575 39.345 42.998" stroke="black" stroke-linecap="round"/>
<path d="M38.0493 45.5896C38.0493 46.4448 37.6217 48.1681 37.6152 50.3255C37.6088 52.4699 41.9235 52.9234 44.9361 54.2191C46.5758 54.9244 48.8038 54.6596 49.9051 53.3769C51.0065 52.0941 51.0065 49.5286 50.7927 48.8483C50.5289 48.0088 49.2832 52.0552 47.5664 53.9988C46.2771 54.6596 44.1392 54.6596 42.3964 54.0182C40.6537 53.3769 39.3709 52.0941 38.0493 50.7725" stroke="black" stroke-linecap="round"/>
<path d="M47.1194 53.3638C49.2703 55.9422 52.7169 61.9673 57.0381 70.8236C59.7743 76.4314 61.7869 84.4092 63.7435 94.14C64.2994 96.905 63.9637 100.372 63.9637 101.066C63.9637 106.491 60.5171 87.1043 58.7873 80.5933C57.3828 75.3066 55.3342 70.234 53.3907 65.0447C52.7428 63.7425 51.8876 62.4597 51.0195 61.1575C50.1514 59.8553 49.2962 58.5726 48.4151 57.2509" stroke="black" stroke-linecap="round"/>
<path d="M78.2166 119.445C78.2166 116.439 79.927 107.836 81.2356 100.036C82.4582 92.7489 85.5504 84.5128 89.4311 74.5617C92.5614 66.5346 96.3308 56.007 100.445 49.496C101.349 48.0648 102.809 46.9111 103.256 47.1054C108.325 49.309 97.6783 58.5207 92.9165 68.0118C89.875 74.0742 86.4315 80.1074 84.7017 87.0265C83.0723 93.544 81.2486 99.5431 79.5188 106.248C79.0847 107.771 78.6572 109.054 78.2231 110.356C77.789 111.658 77.3614 112.941 76.9209 118.15" stroke="black" stroke-linecap="round"/>
<path d="M102.835 36.5195C102.835 37.3747 102.835 41.2359 103.477 46.8464C103.886 50.425 108.433 51.2 110.383 51.6341C111.481 51.8785 106.308 50.7724 103.503 50.1311C101.111 49.5842 101.54 44.3198 101.54 41.9292C101.54 41.7542 101.54 45.0972 102.181 47.0667C102.822 49.0362 104.105 49.8913 105.407 50.5457C106.71 51.2 107.992 51.6276 110.577 51.8479C113.162 52.0682 117.011 52.0682 119.68 52.0682" stroke="black" stroke-linecap="round"/>
<path d="M119.68 33.9281C119.68 45.486 121.39 69.7418 124.202 75.3717C124.956 76.8826 126.987 77.9567 129.151 78.6175C131.315 79.2783 133.881 79.2783 135.416 78.6369C141.585 76.0599 136.109 61.1901 133.939 54.6791C132.162 49.3475 128.335 44.3198 123.8 41.2813C122.647 40.5087 121.856 39.1369 121.63 39.1175C117.326 38.7486 127.013 48.1551 130.894 54.4199C134.259 59.8515 135.228 68.0055 134.587 74.9117C134.337 77.6075 132.663 78.3972 131.147 78.8377C129.631 79.2783 127.92 79.2783 126.398 78.6369C120.479 76.1434 120.12 68.0833 118.604 58.8189C117.806 53.9422 118.384 45.3305 119.239 41.7802C120.094 38.2299 121.805 39.9403 123.113 41.4627C127.415 46.4672 131.756 50.7466 136.505 54.8605C141.717 59.3758 146.864 62.8486 153.776 63.0883C156.371 63.1783 156.387 58.5597 157.035 55.761C158.47 49.5642 151.658 44.3198 145.62 40.2059C138.967 35.6734 132.663 34.3687 126.618 31.7773C124.594 30.9096 121.468 31.3367 120.995 31.7643C115.555 36.6828 137.353 36.079 148.36 41.6765C155.907 45.5144 156.374 53.338 156.614 62.4016C156.664 64.2701 154.69 64.5848 152.319 64.8051C146.548 65.3412 141.72 63.7426 139.349 61.1577C135.048 56.4696 132.222 50.7984 128.549 44.7474C126.886 42.0074 123.58 41.2749 122.491 39.9856C117.982 34.6447 136.913 35.2239 144.059 32.8592C146.913 31.9146 149.896 30.0539 152.487 27.0414C157.358 21.3793 154.236 15.3735 152.947 12.3544C151.751 9.55276 143.923 9.30949 134.859 9.73708C126.486 10.1321 121.001 17.0579 118.39 22.2472C117.166 24.6813 117.088 28.7194 117.516 31.5375C118.44 37.629 123.981 20.1417 130.233 13.8639C136.415 7.6561 146.851 10.6052 152.682 11.6742C154.897 12.0803 154.664 14.8811 154.45 16.6238C153.707 22.6847 146.916 26.5685 141.085 30.2418C132.818 35.4501 127.039 36.079 123.807 37.161C122.347 37.6495 121.001 36.9601 120.34 35.8847C117.062 30.5488 120.975 21.0228 118.397 13.4364C117.337 10.3192 114.937 7.59914 113 4.79391C112.126 3.52729 110.636 3.27145 109.333 3.69255C102.075 6.0397 100.684 17.9131 100.671 26.7693C100.662 33.1945 109.288 35.6385 115.553 36.9472C117.101 37.2705 118.358 38.2299 118.591 38.0291C121.825 35.2444 111.491 31.3626 105.019 23.8086C102.377 20.7255 102.835 15.3864 103.477 10.6376C103.866 7.75363 108.433 7.58619 111.879 7.15212C113.602 6.93517 115.326 7.57323 116.635 8.43488C122.048 11.999 123.126 19.6493 124.856 24.8387C126.975 31.1942 127.882 37.8023 127.888 39.5321C127.905 44.0254 118.41 33.9541 113.22 31.1294C107.023 27.7558 98.1189 26.5944 92.0614 25.0784C90.3698 24.655 88.1937 24.8581 87.0923 26.5685C85.991 28.2788 85.991 31.6995 86.6323 34.1031C87.2737 36.5066 88.5565 37.7894 90.0725 38.8778C98.2731 44.7654 111.879 40.8473 117.496 39.3313C119.18 38.8769 121.364 39.111 117.762 39.111C93.7744 39.111 87.7531 36.9601 82.1232 34.8028C80.6652 34.244 79.5383 32.6583 79.3051 31.1423C79.0718 29.6264 79.927 27.916 83.7882 27.0349C102.345 22.8004 107.992 29.6004 113.182 32.6195C114.484 33.4876 115.767 34.3428 117.069 34.9971C118.371 35.6514 119.654 36.079 122.271 39.111" stroke="black" stroke-linecap="round"/>
</svg>
