<svg width="202" height="82" viewBox="0 0 202 82" fill="none" xmlns="http://www.w3.org/2000/svg">
<path d="M79.0852 2.35128C60.8677 1.79924 44.3064 1.79087 32.6048 2.48511C26.3588 2.85567 20.0248 6.23232 12.0871 10.2681C6.86545 12.9229 3.82317 18.7621 1.31388 25.4451C-0.287419 29.7099 0.736744 34.1106 2.12104 39.3926C5.96404 54.0564 21.8984 60.3243 30.3631 64.4939C35.6302 67.0884 43.5202 69.2156 64.2009 71.5994C84.8817 73.9832 118.28 76.1914 138.246 76.7769C158.212 77.3624 163.732 76.2583 168.37 75.1375C184.896 71.1437 195.6 62.8754 199.799 56.4725C203.155 51.3549 199.54 44.1979 197.733 39.6059C194.372 31.0638 184.233 26.0725 172.724 20.3805C164.967 16.5446 152.658 12.2044 139.639 8.54505C126.62 4.88567 113.094 2.40147 99.5025 1.25974C85.9105 0.118012 72.6614 0.394034 62.2479 1.22628C44.5755 2.63865 33.9514 6.24068 27.9667 8.88381C23.2307 10.9755 18.0592 15.7007 12.7646 21.5474C9.47732 25.1774 9.66146 29.9284 9.79947 34.6584C9.92192 38.8551 14.3622 45.5195 21.3213 53.4572C26.0818 58.8871 32.4877 61.9972 42.3408 66.5808C48.5089 69.4502 57.4384 72.5445 68.6131 75.2169C79.7878 77.8893 93.0369 79.8215 105.521 80.6788C118.004 81.5362 129.321 81.2602 137.221 80.7039C149.311 79.8527 161.532 75.7063 175.179 70.42C184.396 66.8492 188.089 61.7546 189.762 57.4512C190.743 54.9274 190.33 51.2156 189.916 48.539C189.227 44.0847 180.369 36.4275 162.866 24.7425C153.293 18.3512 140.396 14.1617 129.581 10.6361C118.765 7.11057 109.933 5.17842 97.792 3.90704C85.6512 2.63567 70.47 2.08362 61.4072 1.93725C49.8611 1.75076 42.8845 4.00741 33.9849 8.17284C24.3531 12.6809 18.8789 19.8912 15.6796 25.4493C12.0501 31.7546 11.3343 38.5687 13.4045 44.821C16.4974 54.1623 25.8129 56.9953 42.4035 60.8638C57.1015 64.291 84.3882 71.3568 102.33 75.3257C120.271 79.2945 128 80.1226 134.741 80.5492C141.483 80.9758 147.003 80.9758 152.691 80.9758" stroke="black" stroke-linecap="round"/>
</svg>
