<svg width="115" height="102" viewBox="0 0 115 102" fill="none" xmlns="http://www.w3.org/2000/svg">
<path d="M36.3088 5.70389C35.9637 9.52108 34.5728 15.0952 31.7909 25.6997C28.6341 37.7336 23.4454 47.808 14.5508 65.2572C11.2333 71.7655 9.47346 76.7977 6.34127 83.5902C3.72258 89.2691 1.45214 94.5868 1.10179 95.2928C-1.29631 100.125 4.57909 85.206 9.61987 73.9008C12.6543 67.0955 14.6816 62.1983 16.6058 57.8373C19.0303 52.3426 21.312 46.8668 23.5761 41.4547C25.4932 36.8723 27.2312 31.1797 30.0235 25.5951C32.8158 20.0105 34.9074 14.4468 37.1716 9.9028C38.1803 7.87842 38.7455 5.71435 39.7861 3.97308C40.2945 3.12245 41.5169 2.92205 42.9131 3.60705C50.0525 7.10989 54.7568 11.9578 59.6459 15.1057C65.1607 18.6564 68.7183 19.6445 69.4242 19.8223C75.0753 21.2455 59.3374 13.7357 55.149 10.5983C49.6099 6.44916 46.7773 1.87624 44.1733 0.830439C42.6806 0.23099 40.5339 0.474865 40.675 1.33765C41.9522 9.14275 50.9292 9.86619 55.4627 13.1866C61.0904 17.3084 67.6411 20.3242 73.9369 22.6041C75.3433 23.1134 76.7187 23.8172 76.7396 24.0002C76.8951 25.3606 72.9224 22.7923 71.8714 21.574C71.5263 21.1739 72.8911 20.7007 73.9421 20.8681C76.1698 21.2227 77.7854 23.4721 78.3136 25.2134C79.4261 28.8813 71.8871 30.4476 67.5261 33.9249C62.3892 38.0209 58.2916 41.5959 53.4077 45.4288C49.4431 48.5402 47.8336 54.4802 43.3052 60.2322C34.3712 71.5803 29.0091 74.7061 23.9526 78.722C19.8175 82.0062 15.4136 85.1641 8.62113 91.9566C6.00139 94.5764 3.89932 96.6785 2.84829 97.902C-0.603601 101.921 14.6607 85.5825 19.3877 79.9717C22.696 76.0449 25.1396 71.6105 28.6274 68.2901C32.3727 64.7245 36.2879 59.7511 40.4763 56.7862C45.0193 53.5705 50.218 50.3388 55.2902 47.374C61.102 43.9767 64.8802 39.1906 69.5811 34.1341C73.6227 29.7868 77.0847 28.0214 78.826 26.4579C79.6615 25.7077 79.877 24.5493 79.192 24.8787C72.9809 27.8658 70.8413 34.6099 67.5209 38.9814C64.5314 42.9171 60.3832 46.4694 56.5451 50.6578C51.2467 56.4399 45.742 57.6386 42.4215 60.9433C38.0442 65.3 32.1465 69.8326 26.9175 73.6655C21.6767 77.507 17.5052 80.2907 10.5402 86.9002C4.97474 92.1815 1.46259 95.6222 0.57366 99.4655C-0.573661 104.426 11.8788 98.0903 20.4126 94.7855C28.2519 91.7497 37.2919 89.0336 44.1314 86.9368C51.475 84.6854 58.9191 82.0686 65.9156 80.6567C73.3029 79.166 78.8103 77.5298 83.6995 75.778C89.4391 73.7216 93.8072 72.3007 100.6 69.681C106.168 67.5333 111.596 67.0613 112.302 66.5384C120.983 60.1085 85.4826 71.234 78.6901 71.9347C72.4715 72.5762 63.8971 77.1533 57.4184 79.0776C52.4054 80.5665 45.0727 83.4281 39.2894 85.3524C33.7255 87.2037 29.0091 89.0127 24.8206 90.4089C19.2853 92.254 12.2762 94.932 7.91521 96.6837C6.73417 97.1581 5.31116 97.3791 6.15303 97.3844C15.4302 97.442 27.1685 93.5724 36.9781 91.4651C43.0302 90.165 51.9331 86.942 60.8486 83.8046C73.8224 79.239 79.5006 78.22 86.1362 75.9558C91.3091 74.1908 96.9446 72.991 101.133 70.7268C105.069 68.599 109.494 67.762 112.992 65.8481C117.388 63.4432 107.089 56.9692 103.256 53.9939C99.253 50.8866 94.5392 47.557 90.8789 44.2366C89.9615 43.4043 89.3102 42.328 89.8174 42.1397C94.7028 40.3266 97.3001 48.561 101.828 53.6174C105.29 57.4825 107.403 62.1564 111.591 65.3043C112.601 66.0632 113.677 66.6952 113.693 66.7057C116.761 68.751 106.064 58.7262 102.205 53.8266C97.7679 48.1931 91.4018 41.2822 87.2238 38.4794C86.0274 37.6768 84.1021 38.1238 82.868 38.6415C77.8606 40.7421 73.9787 45.7791 68.9222 48.5714C62.9471 51.871 57.2458 58.3288 53.0574 61.1211C49.0211 63.8119 44.0059 67.0299 35.9898 74.8734C31.4099 79.3548 25.8717 80.6463 21.5107 83.2555C16.1478 86.4643 12.9664 90.3932 10.8696 94.2365C10.395 95.1064 9.1388 95.2875 9.12311 95.1202C8.74366 91.0727 16.4176 89.0336 20.6061 86.0688C25.3646 82.7004 29.3228 78.9311 34.0237 75.7833C39.2932 72.2546 44.6543 66.3815 48.8428 63.2336C52.8669 60.2093 57.204 57.6595 61.3924 54.1717C64.9919 51.1744 69.7537 49.293 73.0741 45.8053C77.0847 43.7084 80.2222 41.6168 82.136 40.0533C83.0145 39.1801 83.7047 38.1448 85.4616 34.9864" stroke="black" stroke-linecap="round"/>
<path d="M77.0952 26.62C76.0494 29.7365 75.3592 36.0113 74.8311 41.4234C74.675 43.0231 74.3029 37.0885 75.171 35.0021C75.6939 33.9511 76.3841 32.9157 76.7397 34.4531C77.0952 35.9904 77.0952 40.1318 77.0952 44.3987" stroke="black" stroke-linecap="round"/>
<path d="M24.805 92.5057C28.6222 92.5057 33.161 92.1606 45.4283 91.6377C56.6514 91.1593 78.0574 91.4599 89.0802 89.7343C100.103 88.0088 100.103 84.5576 99.9304 82.2621C99.6777 78.9007 98.712 76.8291 98.1891 76.6409C90.8174 73.987 99.0571 89.6925 99.0571 89.7291C99.0571 92.1083 99.0571 80.1025 99.0571 79.475C99.0571 78.8475 99.0571 85.0596 96.8139 88.2598C89.3238 98.9449 65.4031 90.4141 52.1999 91.2821C49.9336 91.4311 46.8296 91.4599 46.61 91.4599C39.1455 91.4599 81.7386 92.5057 96.7773 90.0795C97.6558 89.0337 98.346 87.6532 98.7016 84.3537C99.0571 81.0542 99.0571 75.8774 99.0571 70.5438" stroke="black" stroke-linecap="round"/>
</svg>
