<svg width="94" height="134" viewBox="0 0 94 134" fill="none" xmlns="http://www.w3.org/2000/svg">
<path d="M67.472 0.5C67.472 8.49177 66.8594 21.5144 65.7734 27.0882C64.8728 31.7103 61.9214 39.7442 57.5867 46.7335C53.3734 53.527 43.673 58.3452 39.4869 60.0531C37.1261 61.0163 34.9944 61.761 34.0615 61.9141C30.9902 62.4184 44.527 61.761 51.6694 64.0675C58.453 66.2582 58.487 72.8808 60.0418 76.7514C61.8891 81.3504 61.9028 87.1007 62.6732 92.3729C63.3489 96.9972 64.3718 101.952 64.8405 106.3C65.2797 110.375 66.2282 114.65 67.161 117.448C68.0587 120.141 65.9312 110.361 65.7687 99.2416C65.6461 90.8436 67.1564 81.5873 67.6251 76.7838C68.053 72.3989 72.0944 68.8895 75.8118 65.794C79.0065 63.1338 83.2328 62.0766 90.6537 61.6078C93.1379 61.4509 85.1263 56.823 81.4089 54.3447C77.745 51.9021 74.3035 47.244 71.3472 41.6702C69.1629 37.5519 67.7876 33.0054 66.3953 28.6754C64.2192 21.9077 63.7592 13.866 63.9123 5.04352C63.9592 2.34317 64.3718 3.26603 64.5296 4.19886C65.2051 8.19254 65.6156 22.9624 63.9216 32.0448C63.1935 35.9487 60.6776 39.4657 59.1229 43.1831C57.5204 47.0146 54.7928 50.6041 51.7066 53.3979C48.0789 56.6819 43.3574 59.2734 40.7121 61.9048C37.2735 65.3253 48.8895 66.699 53.071 69.3304C56.6695 71.595 57.8744 76.5936 58.3432 80.311C58.8756 84.5338 61.5872 89.2727 62.8264 93.4589C64.1491 97.9275 64.6874 101.655 65.4578 105.372C66.218 109.041 66.5438 113.406 67.3142 116.52C68.054 119.51 66.5438 109.118 65.7734 101.107C64.5692 88.5869 66.2282 79.0997 68.0753 76.3244C72.69 69.3908 77.6636 68.5739 81.381 66.5644C84.8745 64.6759 88.8019 63.933 92.3709 63.1579C96.2115 62.3239 85.1263 59.292 81.562 56.2057C77.6524 52.8205 72.7627 43.5683 71.0316 37.6418C69.9461 33.9256 69.3284 29.6082 68.4048 25.5752C67.1657 21.8578 66.5438 18.7669 66.3906 16.4511C66.2375 15.3604 65.9312 14.4415 65.6156 11.6384" stroke="black" stroke-linecap="round"/>
<path d="M18.2776 92.3915C18.2776 96.4013 17.0524 100.727 14.4209 104.291C11.5353 108.199 5.61697 110.324 1.58396 111.262C0.627614 111.484 -0.267796 112.181 1.55611 112.496C7.88825 113.592 13.321 113.731 14.7087 115.582C16.2137 117.591 17.3494 123.894 17.5025 131.789C17.5488 134.174 17.962 133.251 18.1198 131.705C18.8139 124.907 19.8184 121.184 22.1342 117.62C24.6504 113.747 29.3974 112.199 32.1959 111.577C35.2951 110.889 25.7217 108.802 22.3106 104.63C18.9869 100.564 20.4496 93.3382 19.9808 90.5397C19.5055 87.7022 17.9805 97.0139 17.0431 100.731C16.027 104.76 12.727 107.54 9.00953 109.865C7.30761 110.929 5.2921 110.955 4.35926 111.109C3.35773 111.273 8.04885 111.884 11.2929 112.343C16.075 113.02 16.7182 119.903 18.2729 123.936C18.975 125.757 19.2058 129.491 19.2058 131.677C19.2058 136.23 19.5121 122.103 20.4356 120.404C23.2036 115.314 29.4066 112.505 30.6458 111.582C31.8775 110.664 28.5063 108.486 25.7124 105.4C23.5404 101.683 22.3059 97.9792 21.22 93.9555C21.0622 92.7163 21.0622 91.1848 20.134 89.6069" stroke="black" stroke-linecap="round"/>
</svg>
