<svg width="323" height="81" viewBox="0 0 323 81" fill="none" xmlns="http://www.w3.org/2000/svg">
<path d="M0.500122 29.4182C15.7268 25.6115 42.1284 20.7955 70.9596 16.2318C82.7165 14.3708 86.5107 13.5571 95.3496 12.6054C112.418 10.7677 131.628 7.78937 148.65 7.31354C165.251 6.84947 183.047 4.4297 198.894 3.47082C218.651 2.27534 238.374 1.54586 261.517 0.824899C280.369 0.237585 313.685 0.579772 318.948 0.817689C337.472 1.65505 272.576 2.97336 265.388 4.41528C248.357 7.83171 233.659 7.78937 218.288 10.183C207.719 11.8287 197.12 13.5571 181.764 15.9506C165.978 18.4112 148.585 20.7667 127.951 24.357C110.758 27.3488 93.3021 30.3698 85.8402 33.4916C79.3696 36.1986 73.5767 39.0214 71.4066 40.7012C70.7933 41.1759 72.5673 41.9052 93.0498 40.0091C113.532 38.113 153.026 33.8305 175.513 31.6243C202.245 29.0017 210.026 28.9423 218.165 28.2214C229.12 27.2511 203.652 29.4038 151.541 32.5183C113.14 34.8134 104.837 39.973 96.1715 44.0609C94.7589 44.7272 96.1283 46.6924 117.079 47.1898C138.03 47.6873 178.952 47.2115 201.223 46.7284C225.885 46.1935 233.082 45.2793 239.578 45.2793C258.441 45.2793 178.404 52.9503 168.282 54.4067C161.511 55.3809 156.242 57.2905 153.841 58.7252C152.668 59.4261 152.392 61.1116 153.812 62.3228C162.651 69.8603 197.293 66.9081 204.092 67.3839C217.613 68.3303 184.143 71.2339 175.001 75.538C173.531 76.9871 173.531 78.4146 174.72 79.15C175.91 79.8854 178.289 79.8854 180.74 79.8854" stroke="black" stroke-linecap="round"/>
</svg>
